<svg xmlns="http://www.w3.org/2000/svg" viewBox="0 0 207 120">
  <defs><path id="a" d="M0 119.298h206.935V.236H0z"/></defs>
  <g fill="none" fill-rule="evenodd">
    <path fill="#095788" d="M41.32 101.637v2.7h2.866v15.201h2.7v-15.202h2.855v-2.699zM57.846 101.637v7.606h-3.238v-7.606H51.91v17.901h2.7v-7.577h3.237v7.577h2.7v-17.9zM62.979 101.637v17.901h7.683v-2.699h-4.984v-4.897h3.64v-2.7h-3.64v-4.906h4.984v-2.699z"/>
    <g transform="translate(0 .465)">
      <path d="M78.376 105.49c0-1.04-.511-1.56-1.536-1.56h-1.624v5.721h1.624c.43 0 .794-.152 1.091-.456a1.51 1.51 0 00.445-1.095v-2.61zm-1.609-4.318c1.505 0 2.607.415 3.306 1.246.622.726.933 1.734.933 3.023v2.6c0 1.27-.48 2.34-1.44 3.21l2 7.821h-2.911l-1.646-6.761c-.078.006-.16.01-.245.01h-1.548v6.751h-2.698v-17.9h4.25zM88.612 105.274l-1.002 7.057h2.002l-1-7.057zm-1.414 9.687l-.657 4.112h-2.807l3.033-17.901h3.719l2.993 17.9h-2.826l-.638-4.11h-2.817zM101.614 105.49c0-.47-.138-.85-.416-1.133-.277-.285-.65-.428-1.12-.428h-1.624v5.722h1.624c.43 0 .794-.152 1.09-.456.298-.304.446-.67.446-1.095v-2.61zm-1.609-4.318c1.314 0 2.361.415 3.14 1.246.727.792 1.09 1.8 1.09 3.023v2.6c0 1.178-.413 2.186-1.235 3.023-.823.838-1.819 1.256-2.988 1.256h-1.558v6.752h-2.699v-17.9h4.25zM106.393 119.073v-17.901h7.684v2.699h-4.985v4.906h3.64v2.7h-3.64v4.897h4.985v2.699zM120.19 119.298c-1.183 0-2.19-.413-3.017-1.241-.827-.828-1.24-1.83-1.24-3.009v-13.876h2.638v13.848c0 .425.152.788.457 1.089a1.5 1.5 0 001.094.452c.432 0 .796-.151 1.095-.452.297-.301.447-.664.447-1.09v-13.847h2.815v13.876c0 1.198-.418 2.206-1.256 3.024-.837.818-1.849 1.226-3.032 1.226M129.504 103.87h-2.866v-2.698h8.42v2.699h-2.855v15.202h-2.7z" fill="#095788"/>
      <mask id="b" fill="#fff"><path d="M0 119.298h206.935V.236H0z"/></mask>
      <path fill="#095788" mask="url(#b)" d="M137.226 119.073h2.699v-17.901h-2.699zM146.588 119.298c-1.19 0-2.2-.415-3.032-1.245-.831-.832-1.246-1.84-1.246-3.024v-9.804c0-1.184.42-2.193 1.256-3.028.838-.834 1.845-1.251 3.022-1.251 1.191 0 2.2.419 3.028 1.257.828.837 1.242 1.845 1.242 3.022v2.041h-2.797v-2.09c0-.431-.153-.8-.457-1.104a1.5 1.5 0 00-1.103-.457c-.426 0-.789.153-1.09.457a1.511 1.511 0 00-.451 1.104V115c0 .432.15.799.451 1.099.301.301.664.452 1.09.452.431 0 .799-.151 1.103-.452.304-.3.457-.667.457-1.099v-2.464h2.797v2.493c0 1.191-.42 2.2-1.256 3.028-.838.828-1.842 1.241-3.014 1.241M161.632 114.627c.02 1.25-.304 2.316-.971 3.2-.439.602-1.057 1.024-1.854 1.265-.433.138-.933.206-1.503.206-1.06 0-1.936-.261-2.63-.785-.575-.431-1.033-1.015-1.373-1.752-.34-.736-.537-1.584-.59-2.546l2.562-.177c.118 1.04.396 1.793.835 2.257.32.354.689.52 1.109.501.588-.02 1.06-.308 1.413-.864.182-.281.274-.677.274-1.187 0-.752-.337-1.495-1.01-2.228-.537-.504-1.338-1.26-2.404-2.267-.897-.864-1.529-1.639-1.894-2.326a5.39 5.39 0 01-.6-2.513c0-1.629.547-2.862 1.64-3.7.673-.503 1.511-.755 2.512-.755.961 0 1.786.216 2.473.647.53.334.958.8 1.285 1.4.328.597.527 1.287.599 2.065l-2.591.471c-.072-.733-.281-1.302-.629-1.708-.247-.3-.604-.45-1.068-.45-.49 0-.868.218-1.129.657-.21.353-.315.791-.315 1.315 0 .817.354 1.652 1.06 2.502.269.32.668.7 1.198 1.14.628.522 1.043.888 1.247 1.097.66.668 1.173 1.326 1.54 1.974.17.3.307.582.412.844.256.634.39 1.206.402 1.717"/>
      <path fill="#5DB1D3" mask="url(#b)" d="M73.52 60.664h-4.855v-2.47h8.559c2.413 0 4.06-.124 4.937-.371.877-.245 1.838-.808 2.881-1.685v34.567h4.856v2.47H68.665v-2.47h4.855V60.664zM78.952 37.204c1.811 0 3.36.66 4.65 1.978 1.289 1.317 1.934 2.88 1.934 4.691 0 1.865-.645 3.444-1.934 4.732-1.29 1.29-2.867 1.935-4.731 1.935-1.867 0-3.445-.659-4.732-1.976-1.29-1.316-1.934-2.908-1.934-4.772 0-1.812.656-3.362 1.973-4.652 1.317-1.288 2.909-1.936 4.774-1.936M133.27 58.195v2.469h-1.154c-2.578 0-4.526 1.482-5.843 4.445l-13.167 29.055h-2.715l-14.65-33.5h-5.02v-2.469h22.55v2.469h-4.772l8.146 20.412 6.09-14.074c.604-1.372.905-2.552.905-3.54 0-1.865-1.125-2.798-3.373-2.798h-2.222v-2.469h15.224zM66.32 39.14c-1.674-1.453-3.772-2.18-6.296-2.18-3.455 0-6.5 1.51-9.134 4.526-3.075 3.513-4.61 8.724-4.61 15.639v1.07h-4.275v2.469h4.275v30.041h-4.855v2.47H62.74v-2.47h-5.104V60.664h5.104v-2.469h-5.104c-.054-3.238-.41-5.816-1.067-7.738l-.413-1.235c-.494-1.096-.74-2.578-.74-4.443 0-3.787 1.755-5.68 5.268-5.68.767 0 1.534.275 2.303.822-3.072.167-4.608 1.813-4.608 4.94 0 1.427.493 2.62 1.482 3.58.988.959 2.192 1.441 3.62 1.441 1.482 0 2.744-.521 3.786-1.565 1.041-1.042 1.564-2.276 1.564-3.703 0-2.194-.838-4.018-2.511-5.474"/>
      <path fill="#095788" mask="url(#b)" d="M32.554 23.48c-.768-1.478-1.152-4.493-1.152-9.049 0-4.909.465-7.984 1.4-9.227 1.097-1.477 2.826-2.218 5.187-2.218 2.36 0 4.13.726 5.312 2.174 1.18 1.45 1.77 4.866 1.77 10.248 0 3.785-.453 6.417-1.358 7.896-.906 1.478-2.814 2.69-5.724 3.637-2.854-.828-4.666-1.981-5.435-3.46m5.6 6.476c3.24 1.124 5.463 2.707 6.67 4.746.982 1.66 1.56 4.146 1.743 7.43.579-.98 1.22-1.896 1.944-2.724 1.929-2.21 4.08-3.767 6.427-4.671-2.52-2.855-6.404-5.015-11.677-6.467 8.616-2.72 12.928-7.452 12.928-14.194 0-3.962-1.704-7.26-5.107-9.892C47.68 1.553 43.395.237 38.236.237c-5.16 0-9.456 1.36-12.887 4.08-3.43 2.722-5.146 6.152-5.146 10.292 0 6.564 4.336 11.209 13.01 13.928-10.045 3.018-15.068 8.399-15.068 16.147 0 4.673 1.865 8.532 5.6 11.578 3.732 3.048 8.453 4.57 14.162 4.57l.06-.002v-2.666c-.048.001-.094.005-.142.005-2.911 0-4.928-.932-6.052-2.795-1.126-1.863-1.688-5.13-1.688-9.803 0-5.204.495-8.768 1.483-10.69.986-1.921 3.182-3.563 6.586-4.924"/>
      <path fill="#D12034" mask="url(#b)" d="M29.648 83.02a8.425 8.425 0 01-14.216 9.042 8.425 8.425 0 0114.216-9.043"/>
      <path fill="#095788" mask="url(#b)" d="M15.254 57.427a7.625 7.625 0 01-7.627 7.627 7.627 7.627 0 117.627-7.627"/>
      <path fill="#5DB1D3" mask="url(#b)" d="M11.442 75.448a5.72 5.72 0 11-7.318-3.446 5.718 5.718 0 017.318 3.446M11.539 21.263a3.713 3.713 0 11-6.988 2.515 3.713 3.713 0 016.988-2.515"/>
      <path fill="#D12034" mask="url(#b)" d="M14.177 34.797a4.807 4.807 0 11-8.112 5.159 4.807 4.807 0 018.112-5.159"/>
      <path fill="#095788" mask="url(#b)" d="M27.347 69.225a3.693 3.693 0 01-2.223 4.723 3.69 3.69 0 01-4.722-2.223 3.69 3.69 0 116.945-2.5"/>
      <path fill="#5DB1D3" mask="url(#b)" d="M142.486 72.106h10.462c-.107-5.537-.346-8.837-.72-9.903-.532-1.544-1.97-2.316-4.311-2.316-1.97 0-3.408.587-4.313 1.757-.639.798-.957 2.316-.957 4.552 0 .108-.055 2.077-.161 5.91m20.764 7.109h2.475c-.906 4.472-2.822 7.946-5.75 10.422-2.928 2.477-6.6 3.714-11.02 3.714-5.377 0-9.823-1.638-13.337-4.913-3.514-3.274-5.27-7.438-5.27-12.498 0-5.164 1.729-9.517 5.19-13.058 3.46-3.54 7.693-5.312 12.698-5.312 4.631 0 8.586 1.652 11.859 4.952 3.275 3.303 4.964 7.322 5.071 12.06h-22.76c.107 4.42.32 7.773.64 10.064.584 3.94 3.006 5.91 7.267 5.91 3.14 0 5.856-1 8.146-2.996 2.287-1.996 3.884-4.778 4.79-8.345"/>
      <path fill="#095788" mask="url(#b)" d="M186.515 84.719c2.91-.946 4.817-2.159 5.723-3.638.905-1.479 1.359-4.11 1.359-7.895 0-5.383-.591-8.798-1.77-10.248-1.183-1.449-2.953-2.174-5.312-2.174-2.362 0-4.09.74-5.189 2.218-.933 1.243-1.399 4.32-1.399 9.227 0 4.555.384 7.571 1.153 9.049.769 1.48 2.58 2.633 5.435 3.46m.164 3.017c-3.404 1.361-5.6 3.002-6.586 4.923-.99 1.924-1.483 5.487-1.483 10.692 0 4.673.562 7.94 1.688 9.8 1.124 1.865 3.141 2.797 6.052 2.797 3.789 0 6.393-1.922 7.824-5.766.658-1.715.988-4.348.988-7.896 0-4.495-.605-7.764-1.813-9.804-1.207-2.04-3.43-3.622-6.67-4.746m-4.94-1.42c-8.675-2.72-13.01-7.364-13.01-13.928 0-4.14 1.715-7.57 5.146-10.291 3.43-2.72 7.727-4.081 12.887-4.081 5.158 0 9.442 1.316 12.845 3.947 3.404 2.632 5.107 5.93 5.107 9.892 0 6.743-4.312 11.476-12.928 14.195 10.1 2.78 15.15 8.133 15.15 16.06 0 4.73-1.963 8.662-5.887 11.798-3.926 3.135-8.797 4.701-14.616 4.701-5.71 0-10.43-1.52-14.164-4.569-3.733-3.044-5.598-6.903-5.598-11.576 0-7.75 5.022-13.131 15.068-16.149"/>
    </g>
  </g>
</svg>