<?xml version="1.0" encoding="utf-8"?>
<!-- Generator: Adobe Illustrator 24.3.0, SVG Export Plug-In . SVG Version: 6.00 Build 0)  -->
<!--
	Hex code reference:
	Steel Blue: #0B92CC
	Dark Gray: #343A40
	Gold: #FFC107

	Set "OpenBench" font color:
	.st4{fill:#FFC107;}
	Set atom background color:
	e.g.: .st19{fill:none;stroke:#0B92CC;stroke-width:26;stroke-miterlimit:10;}
-->
<svg version="1.1" xmlns="http://www.w3.org/2000/svg" xmlns:xlink="http://www.w3.org/1999/xlink" x="0px" y="0px"
	 viewBox="0 0 1846.3 465.3" style="enable-background:new 0 0 1846.3 465.3;" xml:space="preserve">
<style type="text/css">
	.st0{fill:#F0EFEF;}
	.st1{fill:#191C1F;}
	.st2{fill:#3E4245;}
	.st3{fill:#FFFFFF;}
	.st4{fill:#FFC107;}
	.st5{stroke:#343A40;stroke-miterlimit:10;}
	.st6{fill:#DEDFDE;}
	.st7{fill:#FEC111;}
	.st8{fill:#5C626C;}
	.st9{opacity:0.17;}
	.st10{fill:none;stroke:#9A9EA5;stroke-width:35;stroke-miterlimit:10;}
	.st11{fill:#9A9FA5;}
	.st12{fill:none;stroke:#9A9EA5;stroke-width:26;stroke-miterlimit:10;}
	.st13{opacity:0.4;}
	.st14{fill:none;stroke:#343A40;stroke-width:35;stroke-miterlimit:10;}
	.st15{fill:none;stroke:#343A40;stroke-width:26;stroke-miterlimit:10;}
	.st16{opacity:0.3;}
	.st17{fill:none;stroke:#FEC111;stroke-width:35;stroke-miterlimit:10;}
	.st18{opacity:0.5;}
	.st19{fill:none;stroke:#0B92CC;stroke-width:26;stroke-miterlimit:10;}
	.st20{fill:none;stroke:#FEC111;stroke-width:23;stroke-miterlimit:10;}
	.st21{opacity:0.2;}
	.st22{fill:none;stroke:#343140;stroke-width:23;stroke-miterlimit:10;}
	.st23{fill:none;stroke:#343140;stroke-width:36;stroke-miterlimit:10;}
	.st24{fill:none;stroke:#FEC111;stroke-width:36;stroke-miterlimit:10;}
	.st25{display:none;}
	.st26{display:inline;opacity:0.17;}
</style>
<g id="Layer_1">
</g>
<g id="B_x26_W_Dark_Mode">
</g>
<g id="B_x26_W_Dark_Mode_Artboard">
</g>
<g id="B_x26_W">
</g>
<g id="B_x26_W_Artboard">
</g>
<g id="Dark_BG">
</g>
<g id="Brand_Identity">
</g>
<g id="Brand_Artboard">
	<g class="st18">
		<path class="st19" d="M1007.5,266.3c-2,24.6-6,47.5-11.8,67.9"/>
		<path class="st19" d="M853.9,127.9c-6.2,21.1-10.7,45.1-12.7,71"/>
		<path class="st19" d="M853.9,127.9c15.1-51.1,41-84.8,70.4-84.8c30,0,56.4,35.2,71.4,88.2"/>
		<path class="st19" d="M853,334.4c15,52.8,41.3,87.9,71.3,87.9c30,0,56.4-35.1,71.4-88.1"/>
		<path class="st19" d="M1007.5,199.6c-1.9-24.8-6-47.9-11.8-68.3"/>
		<path class="st19" d="M1007.5,199.6c0.8,10.7,1.3,21.8,1.3,33.1c0,11.5-0.5,22.7-1.3,33.7"/>
		<path class="st19" d="M841,264.7c-0.8-10.4-1.2-21.1-1.2-32c0-11.5,0.5-22.8,1.3-33.8"/>
		<path class="st19" d="M841,264.7c1.9,25.3,6.1,48.9,12,69.7"/>
		<path class="st19" d="M1053.2,233.8c43.7-35.6,66.7-70.6,56-92.3c-11.1-22.5-55.6-25-113.5-10.2"/>
		<path class="st19" d="M853,334.4c22.4-5.8,46.9-14.2,72.1-25"/>
		<path class="st19" d="M1007.5,266.3c16.9-10.6,32.3-21.6,45.7-32.5"/>
		<path class="st19" d="M1007.5,266.3c-16.3,10.2-34,20.1-52.8,29.4c-9.9,4.9-19.8,9.5-29.6,13.6"/>
		<path class="st19" d="M926.4,154.8c24.3-10.2,47.7-18.1,69.3-23.6"/>
		<path class="st19" d="M795.1,231.5c-44.2,35.8-67.5,71.2-56.8,92.9c11.1,22.6,56.2,25,114.6,9.9"/>
		<path class="st19" d="M926.4,154.8c-11.1,4.6-22.3,9.7-33.6,15.3c-18.4,9.1-35.7,18.8-51.7,28.7"/>
		<path class="st19" d="M795.1,231.5c13.5-10.9,29-21.9,46-32.6"/>
		<path class="st19" d="M1007.5,199.6c17,11.2,32.4,22.8,45.7,34.2"/>
		<path class="st19" d="M925.1,309.4c24.8,10.8,48.7,19.1,70.6,24.8"/>
		<path class="st19" d="M926.4,154.8c8.8,4,17.8,8.3,26.7,13c19.5,10.1,37.8,20.8,54.4,31.8"/>
		<path class="st19" d="M795.1,231.5c13.5,11.1,28.9,22.3,45.9,33.2"/>
		<path class="st19" d="M995.7,334.2c55.4,14.5,98,12.3,109.2-9.4c10.8-21-10.4-55.4-51.7-91"/>
		<path class="st19" d="M853.9,127.9c-59-16.6-104.9-15.2-116.6,7.4c-11.3,22,12.5,58.8,57.8,96.2"/>
		<path class="st19" d="M926.4,154.8c-25.3-11.5-49.9-20.6-72.5-26.9"/>
		<path class="st19" d="M925.1,309.4c-11.9-5.2-23.9-10.9-36-17.1c-17-8.8-33.1-18.1-48-27.6"/>
	</g>
	<g>
		<path class="st4" d="M464.5,201.1c0-4.9,1.3-9.3,4-13.1c2.7-3.8,6.2-6.9,10.6-9.5c4.3-2.4,9.1-4.2,14.5-5.5
			c5.4-1.3,10.9-1.9,16.3-1.9c5.5,0,10.9,0.6,16.3,1.9c5.4,1.3,10.3,3.1,14.8,5.5c4.3,2.5,7.7,5.7,10.4,9.5c2.7,3.8,4,8.1,4,13.1
			v64.6c0,5.2-1.3,9.6-4,13.2c-2.7,3.7-6.1,6.7-10.4,9.1c-4.4,2.5-9.3,4.4-14.8,5.7c-5.4,1.3-10.9,1.9-16.3,1.9
			c-5.5,0-10.9-0.6-16.3-1.9c-5.4-1.3-10.2-3.2-14.5-5.7c-4.4-2.4-8-5.4-10.6-9.1c-2.7-3.7-4-8.1-4-13.2V201.1z M491.6,265.7
			c0,4.2,1.8,7.4,5.5,9.4c3.6,2,7.9,3,12.9,3c5,0,9.3-1,12.9-3c3.6-2,5.5-5.1,5.5-9.4v-64.6c0-4.2-1.8-7.4-5.5-9.4
			c-3.6-2-7.9-3-12.9-3c-5,0-9.3,1-12.9,3c-3.6,2-5.5,5.1-5.5,9.4V265.7z"/>
		<path class="st4" d="M577.7,329.8V207.4h27.1v7.9c3.4-2.5,6.8-4.6,10.4-6.4c3.5-1.7,8.7-2.6,15.4-2.6c11.2,0,19,2.8,23.7,8.3
			c1.6,2,2.7,4.4,3.5,7.2c0.7,2.9,1.1,6.7,1.1,11.5v33.2c0,6.4-0.3,11.1-0.8,13.9c-1.1,5.7-5.1,10-12.2,12.9
			c-3.5,1.5-8.7,2.2-15.4,2.2c-5.3,0-10.1-0.8-14.2-2.3c-4.2-1.5-7.8-3.8-10.8-6.6h-0.5v43.2H577.7z M631.7,235.8
			c0-3.6-1.1-6.4-3.2-8.6c-2.1-2.2-5.5-3.3-10.1-3.3c-4.1,0-7.4,1-9.8,3c-2.5,2-3.7,4.6-3.7,7.8v33.9c0,2.8,1.3,5,3.9,6.8
			c2.6,1.8,5.8,2.7,9.7,2.7c5.1,0,8.6-1,10.5-3.1c1.9-2.1,2.8-4.5,2.8-7.2V235.8z"/>
		<path class="st4" d="M759.6,257.6h-53.7v11.9c0,2.8,1.2,4.9,3.6,6.4c2.4,1.5,5.6,2.2,9.7,2.2c5.1,0,8.5-1,10.2-2.9
			c1.7-1.9,2.7-3.9,3.1-5.8h27.1c0,7.7-3.6,13.9-10.9,18.6c-3.5,2.4-7.8,4.3-12.8,5.7c-5,1.4-10.5,2.1-16.7,2.1
			c-8.5,0-15.7-1.1-21.7-3.4c-5.9-2.3-10.5-5.3-13.7-9.1c-2-2.3-3.3-4.9-4-7.9c-0.7-3-1.1-6.2-1.1-9.8v-28.7c0-3.6,0.4-6.8,1.1-9.8
			c0.7-3,2-5.6,4-7.9c3.2-3.8,7.8-6.8,13.7-9.1c5.9-2.3,13.2-3.4,21.7-3.4c6.2,0,11.8,0.7,16.9,2.1c5.1,1.4,9.3,3.3,12.9,5.7
			c7.1,5.2,10.6,11.6,10.6,19.4V257.6z M705.9,243.9h26.6v-10c0-3.3-1.2-5.8-3.6-7.5c-2.4-1.7-5.6-2.5-9.7-2.5
			c-4.1,0-7.3,0.8-9.7,2.5c-2.4,1.7-3.6,4.2-3.6,7.5V243.9z"/>
		<path class="st4" d="M779.5,294.6v-87.2h27.1v8.4h0.5c2.8-2.8,6.2-5,10.2-6.8c4-1.8,9.1-2.7,15.3-2.7c3.4,0,6.7,0.4,10.1,1.1
			c3.4,0.7,6.4,2,9,3.7c2.7,1.7,4.8,3.9,6.4,6.6c1.6,2.7,2.4,6,2.4,9.9v66.9h-27.1v-60.3c0-3.2-1.2-5.7-3.5-7.6
			c-2.3-1.8-5.6-2.8-9.8-2.8c-5.1,0-8.7,1-10.6,3.1c-2,2.1-2.9,5-2.9,8.9v58.6H779.5z"/>
		<path class="st4" d="M884.5,294.6V172.2h39.6c8.7,0,16.1,0.9,22.2,2.6c6.1,1.7,11.1,4,15,6.9c3.9,2.9,6.7,6.2,8.4,9.9
			c1.7,3.7,2.5,7.6,2.5,11.6v4.5c0,3.3-0.4,6.1-1.2,8.4c-0.8,2.3-2,4.3-3.6,6c-3,3.2-7.6,6-13.8,8.3c6.4,2,11.1,4.8,14.1,8.6
			c3,3.8,4.5,8.9,4.5,15.5v6.9c0,10.8-4,19-12.1,24.8c-8.1,5.7-21,8.6-38.7,8.6H884.5z M911.6,188.7v33.7h12.2
			c9,0,15.1-1.5,18.2-4.4c3.1-2.9,4.7-7.2,4.7-12.8c0-5.5-1.7-9.6-5.2-12.4c-3.5-2.8-9.7-4.1-18.7-4.1H911.6z M911.6,237.9v39.2
			h11.7c5.5,0,9.8-0.5,12.9-1.5c3.1-1,5.5-2.5,7-4.3c1.6-1.8,2.6-4,2.9-6.5c0.4-2.5,0.5-5.3,0.5-8.3c0-3.1-0.3-5.8-0.8-8.1
			c-0.5-2.3-1.6-4.2-3.2-5.8c-1.8-1.6-4.2-2.8-7.2-3.5c-3-0.7-7-1.1-12-1.1H911.6z"/>
		<path class="st4" d="M1074.6,257.6h-53.7v11.9c0,2.8,1.2,4.9,3.6,6.4c2.4,1.5,5.6,2.2,9.7,2.2c5.1,0,8.5-1,10.2-2.9
			c1.7-1.9,2.7-3.9,3.1-5.8h27.1c0,7.7-3.6,13.9-10.9,18.6c-3.5,2.4-7.8,4.3-12.8,5.7c-5,1.4-10.5,2.1-16.7,2.1
			c-8.5,0-15.7-1.1-21.7-3.4c-5.9-2.3-10.5-5.3-13.7-9.1c-2-2.3-3.3-4.9-4-7.9c-0.7-3-1.1-6.2-1.1-9.8v-28.7c0-3.6,0.4-6.8,1.1-9.8
			c0.7-3,2-5.6,4-7.9c3.2-3.8,7.8-6.8,13.7-9.1c5.9-2.3,13.2-3.4,21.7-3.4c6.2,0,11.8,0.7,16.9,2.1c5.1,1.4,9.3,3.3,12.9,5.7
			c7.1,5.2,10.6,11.6,10.6,19.4V257.6z M1020.9,243.9h26.6v-10c0-3.3-1.2-5.8-3.6-7.5c-2.4-1.7-5.6-2.5-9.7-2.5
			c-4.1,0-7.3,0.8-9.7,2.5c-2.4,1.7-3.6,4.2-3.6,7.5V243.9z"/>
		<path class="st4" d="M1094.5,294.6v-87.2h27.1v8.4h0.5c2.8-2.8,6.2-5,10.2-6.8c4-1.8,9.1-2.7,15.3-2.7c3.4,0,6.7,0.4,10.1,1.1
			c3.4,0.7,6.4,2,9,3.7c2.7,1.7,4.8,3.9,6.4,6.6c1.6,2.7,2.4,6,2.4,9.9v66.9h-27.1v-60.3c0-3.2-1.2-5.7-3.5-7.6
			c-2.3-1.8-5.6-2.8-9.8-2.8c-5.1,0-8.7,1-10.6,3.1c-2,2.1-2.9,5-2.9,8.9v58.6H1094.5z"/>
		<path class="st4" d="M1226.6,269.5c0,2.8,1.2,4.9,3.6,6.4c2.4,1.5,5.6,2.2,9.7,2.2c5.1,0,8.5-1,10.2-2.9c1.7-1.9,2.7-3.9,3.1-5.8
			h27.1c0,7.7-3.6,13.9-10.9,18.6c-3.5,2.4-7.8,4.3-12.8,5.7c-5,1.4-10.5,2.1-16.7,2.1c-8.5,0-15.7-1.1-21.7-3.4
			c-5.9-2.3-10.5-5.3-13.7-9.1c-2-2.3-3.3-4.9-4-7.9c-0.7-3-1.1-6.2-1.1-9.8v-28.7c0-3.6,0.4-6.8,1.1-9.8c0.7-3,2-5.6,4-7.9
			c3.2-3.8,7.8-6.8,13.7-9.1c5.9-2.3,13.2-3.4,21.7-3.4c6.2,0,11.8,0.7,16.9,2.1c5.1,1.4,9.3,3.3,12.9,5.7
			c7.1,5.2,10.6,11.9,10.6,20.1h-27.1c0-3.6-1.2-6.2-3.6-7.8c-2.4-1.7-5.6-2.5-9.7-2.5c-4.1,0-7.3,0.8-9.7,2.5
			c-2.4,1.7-3.6,4.2-3.6,7.5V269.5z"/>
		<path class="st4" d="M1293.1,294.6V172.2h27.1v43.7h0.5c2.8-2.8,6.2-5,10.2-6.8c4-1.8,9.1-2.7,15.3-2.7c3.4,0,6.7,0.4,10.1,1.1
			c3.4,0.7,6.4,2,9,3.7c2.7,1.7,4.8,3.9,6.4,6.6c1.6,2.7,2.4,6,2.4,9.9v66.9h-27.1v-60.3c0-3.2-1.2-5.7-3.5-7.6
			c-2.3-1.8-5.6-2.8-9.8-2.8c-5.1,0-8.7,1-10.6,3.1c-2,2.1-2.9,5-2.9,8.9v58.6H1293.1z"/>
	</g>
</g>
<g id="Icon">
</g>
<g id="logo_artboard">
</g>
<g id="dark_mode_atom" class="st25">
</g>
</svg>
