<?xml version="1.0" encoding="UTF-8"?>
<svg id="Layer_1" data-name="Layer 1" xmlns="http://www.w3.org/2000/svg" viewBox="0 0 144 108">
  <defs>
    <style>
      .cls-1 {
        fill: #fff;
      }

      .cls-2 {
        fill: #221f20;
      }
    </style>
  </defs>
  <path class="cls-1" d="m115.68,28.84c-2.88-6.24-12.16-7.92-25.67-4.74-3.97-12.87-10.37-20.18-17.8-20.18s-13.55,7-17.52,19.32c-13.8-3.63-23.35-2.18-26.39,4.11-2.84,5.92,1.17,14.55,11.02,23.95-9.57,8.99-13.51,17.34-10.83,23.17,1.92,4.18,6.71,6.32,13.73,6.32,3.53,0,7.63-.55,12.2-1.64,3.97,12.84,10.37,20.14,17.79,20.14s13.84-7.3,17.8-20.15c4.27,1.02,8.12,1.54,11.45,1.54,6.69,0,11.32-2.05,13.25-6.06,2.74-5.7-.72-13.69-9.73-22.68,9.62-9.05,13.42-17.18,10.7-23.07Zm-29.88,42.94c-2.07-.66-4.18-1.43-6.32-2.28.27-.14.54-.28.82-.43,2.27-1.2,4.48-2.46,6.64-3.76-.31,2.24-.68,4.4-1.14,6.46Zm-27-41.11c2.23.76,4.53,1.63,6.87,2.62-.6.31-1.2.6-1.8.91-2.15,1.13-4.28,2.34-6.38,3.6.34-2.45.77-4.83,1.3-7.14Zm18.73,33.16c-1.83.97-3.52,1.81-5.13,2.56-2.16-1.04-4.34-2.14-6.52-3.33-3.16-1.75-6.23-3.62-9.16-5.58-.11-1.92-.18-3.89-.18-5.89s.07-4.1.19-6.32c3.23-2.09,6.56-4.05,9.92-5.83,2-1.06,4-2.03,5.98-2.94,1.64.82,3.12,1.6,4.49,2.37,3.76,2.08,7.3,4.28,10.56,6.53.13,2.16.19,4.19.19,6.18s-.06,4.05-.19,6.25c-3.23,2.1-6.63,4.12-10.16,5.99Zm8.27-32.44c.46,2.06.83,4.21,1.14,6.42-2.22-1.4-4.53-2.78-6.91-4.1-.11-.06-.22-.12-.33-.18,2.07-.8,4.11-1.52,6.1-2.14Zm-31.93,12.23h.02s0,0,0,0h-.02s0,0,0,0Zm-3.22,9.53c-.78-.6-1.55-1.21-2.29-1.82.74-.59,1.5-1.18,2.29-1.77-.01.68-.02,1.36-.02,2.03,0,.52.02,1.04.03,1.56Zm3.22,5.99h0s-.02,0-.02,0h.02Zm4.78,12.69c-.49-2.2-.89-4.49-1.2-6.84,1.82,1.12,3.69,2.21,5.58,3.26.76.42,1.52.81,2.29,1.21-2.26.89-4.48,1.69-6.67,2.38Zm35.15-21.92c.78.62,1.54,1.25,2.28,1.88-.74.6-1.5,1.19-2.29,1.78.01-.67.02-1.33.02-1.98,0-.56,0-1.12-.02-1.68Zm16.5-18.59c1.25,2.71-1.34,8.78-9.68,16.55-2.25-1.95-4.68-3.85-7.23-5.7-.37-4.31-.99-8.44-1.87-12.34,11.2-2.6,17.56-1.16,18.78,1.49Zm-38.09-21.48c4.42,0,9.03,6.12,12.07,15.81-3.73,1.15-7.6,2.6-11.54,4.32-4.25-2.01-8.39-3.7-12.37-5.03,3.03-9.26,7.54-15.1,11.84-15.1Zm-38.57,20.07c1.3-2.69,7.92-3.99,19.48-.96-.97,4.14-1.66,8.49-2.05,13-2.59,1.78-5.02,3.6-7.26,5.43-8.81-8.28-11.5-14.67-10.16-17.46Zm.24,42.06c-1.26-2.73,1.38-8.87,9.89-16.73,2.26,1.88,4.69,3.73,7.25,5.53.37,4.4,1.01,8.63,1.91,12.63-11.36,2.69-17.81,1.25-19.04-1.42Zm38.33,21.37c-4.42,0-9.01-6.11-12.05-15.78,3.97-1.24,8.06-2.79,12.22-4.65,4.06,1.84,8.05,3.38,11.91,4.59-3.04,9.7-7.65,15.83-12.08,15.83Zm37.16-21.32c-1.25,2.6-7.24,3.89-17.86,1.36.86-3.81,1.48-7.9,1.86-12.21,2.52-1.74,4.91-3.52,7.13-5.34,7.77,7.68,10.11,13.6,8.86,16.19Z"/>
  <g>
    <path class="cls-2" d="m3.68,62.29c-1.36-1.35-2.04-3.14-2.04-5.36v-13.06c0-2.23.68-4.02,2.04-5.36,1.36-1.35,3.15-2.02,5.38-2.02s4.03.67,5.4,2.02c1.37,1.35,2.06,3.14,2.06,5.36v13.06c0,2.23-.69,4.02-2.06,5.36-1.37,1.35-3.17,2.02-5.4,2.02s-4.02-.67-5.38-2.02Zm7.52-2.78c.54-.61.82-1.41.82-2.39v-13.45c0-.98-.27-1.78-.82-2.39-.54-.61-1.26-.91-2.14-.91s-1.59.3-2.12.91c-.53.61-.8,1.41-.8,2.39v13.45c0,.99.27,1.78.8,2.39.53.61,1.24.91,2.12.91s1.59-.3,2.14-.91Z"/>
    <path class="cls-2" d="m31.02,45.52c.96,1.13,1.44,2.66,1.44,4.61v7.85c0,2-.48,3.55-1.44,4.66-.96,1.11-2.31,1.67-4.04,1.67-.6,0-1.21-.11-1.83-.33-.62-.22-1.18-.58-1.67-1.07-.05-.05-.1-.06-.16-.04-.05.03-.08.08-.08.16v7.85c0,.13-.05.24-.14.33-.09.09-.2.14-.33.14h-3.58c-.13,0-.24-.05-.33-.14-.09-.09-.14-.2-.14-.33v-26.28c0-.13.04-.24.14-.33s.2-.14.33-.14h3.58c.13,0,.24.05.33.14.09.09.14.2.14.33v.47c0,.08.03.12.1.14.06.01.14-.03.21-.14.91-.83,2.05-1.24,3.42-1.24,1.74,0,3.08.56,4.04,1.69Zm-3.69,2.93c-.44-.52-1.02-.78-1.75-.78s-1.26.26-1.69.78c-.43.52-.64,1.19-.64,2.02v7.19c0,.83.21,1.5.64,2,.43.51.99.76,1.69.76s1.31-.25,1.75-.76c.44-.51.66-1.17.66-2v-7.19c0-.83-.22-1.5-.66-2.02Z"/>
    <path class="cls-2" d="m47.82,55.59c-.09.09-.2.14-.33.14h-8.59c-.13,0-.19.07-.19.19v1.75c0,.8.22,1.46.66,1.98.44.52,1.01.78,1.71.78.6,0,1.11-.19,1.54-.56.43-.38.71-.86.84-1.46.08-.26.25-.39.51-.39l3.46.16c.13,0,.24.05.33.14.09.09.12.21.1.37-.18,1.81-.84,3.21-1.98,4.18-1.14.97-2.73,1.46-4.78,1.46s-3.8-.56-5.03-1.69c-1.23-1.13-1.85-2.66-1.85-4.61v-7.89c0-1.89.61-3.41,1.85-4.57,1.23-1.15,2.91-1.73,5.03-1.73s3.8.58,5.03,1.73c1.23,1.15,1.85,2.68,1.85,4.57v5.13c0,.13-.05.24-.14.33Zm-8.45-7.09c-.44.52-.66,1.18-.66,1.98v1.75c0,.13.06.19.19.19h4.39c.13,0,.19-.06.19-.19v-1.75c0-.83-.22-1.5-.66-2-.44-.51-1.02-.76-1.75-.76s-1.27.26-1.71.78Z"/>
    <path class="cls-2" d="m62.11,45.52c.87,1.13,1.3,2.73,1.3,4.8v13.22c0,.13-.05.24-.14.33-.09.09-.2.14-.33.14h-3.58c-.13,0-.24-.04-.33-.14-.09-.09-.14-.2-.14-.33v-12.87c0-.93-.19-1.66-.58-2.18-.39-.52-.95-.78-1.67-.78s-1.33.27-1.75.82c-.41.54-.62,1.3-.62,2.25v12.75c0,.13-.05.24-.14.33-.09.09-.2.14-.33.14h-3.58c-.13,0-.24-.04-.33-.14-.09-.09-.14-.2-.14-.33v-18.93c0-.13.04-.24.14-.33.09-.09.2-.14.33-.14h3.58c.13,0,.24.05.33.14.09.09.14.2.14.33v.78c0,.08.03.12.1.14.06.01.14-.03.21-.14.88-1.04,2.11-1.55,3.69-1.55,1.68,0,2.96.56,3.83,1.69Z"/>
    <path class="cls-2" d="m78.46,62.06c-1.39,1.3-3.19,1.94-5.42,1.94h-6.84c-.13,0-.24-.04-.33-.14-.09-.09-.14-.2-.14-.33v-26.28c0-.13.04-.24.14-.33s.2-.14.33-.14h6.14c2.46,0,4.39.62,5.79,1.87,1.4,1.24,2.1,3.06,2.1,5.44,0,2.67-.95,4.57-2.84,5.71-.13.08-.16.16-.08.23,1.01.65,1.8,1.52,2.37,2.6.57,1.09.86,2.38.86,3.89,0,2.38-.69,4.22-2.08,5.52Zm-8.22-21.18v7.23c0,.13.06.19.19.19h1.98c1.06,0,1.89-.32,2.49-.97.6-.65.89-1.57.89-2.76s-.3-2.2-.89-2.88c-.6-.67-1.43-1.01-2.49-1.01h-1.98c-.13,0-.19.07-.19.19Zm4.9,18.11c.6-.73.89-1.75.89-3.07s-.3-2.4-.89-3.17c-.6-.76-1.41-1.15-2.45-1.15h-2.25c-.13,0-.19.06-.19.19v8.08c0,.13.06.19.19.19h2.25c1.04,0,1.85-.36,2.45-1.09Z"/>
    <path class="cls-2" d="m95.74,55.59c-.09.09-.2.14-.33.14h-8.59c-.13,0-.19.07-.19.19v1.75c0,.8.22,1.46.66,1.98.44.52,1.01.78,1.71.78.6,0,1.11-.19,1.54-.56.43-.38.71-.86.84-1.46.08-.26.25-.39.51-.39l3.46.16c.13,0,.24.05.33.14.09.09.12.21.1.37-.18,1.81-.84,3.21-1.98,4.18-1.14.97-2.73,1.46-4.78,1.46s-3.8-.56-5.03-1.69c-1.23-1.13-1.85-2.66-1.85-4.61v-7.89c0-1.89.62-3.41,1.85-4.57,1.23-1.15,2.91-1.73,5.03-1.73s3.8.58,5.03,1.73c1.23,1.15,1.85,2.68,1.85,4.57v5.13c0,.13-.05.24-.14.33Zm-8.45-7.09c-.44.52-.66,1.18-.66,1.98v1.75c0,.13.06.19.19.19h4.39c.13,0,.19-.06.19-.19v-1.75c0-.83-.22-1.5-.66-2-.44-.51-1.02-.76-1.75-.76s-1.27.26-1.71.78Z"/>
    <path class="cls-2" d="m110.02,45.52c.87,1.13,1.3,2.73,1.3,4.8v13.22c0,.13-.05.24-.14.33-.09.09-.2.14-.33.14h-3.58c-.13,0-.24-.04-.33-.14-.09-.09-.14-.2-.14-.33v-12.87c0-.93-.19-1.66-.58-2.18-.39-.52-.95-.78-1.67-.78s-1.33.27-1.75.82c-.41.54-.62,1.3-.62,2.25v12.75c0,.13-.05.24-.14.33-.09.09-.2.14-.33.14h-3.58c-.13,0-.24-.04-.33-.14-.09-.09-.14-.2-.14-.33v-18.93c0-.13.04-.24.14-.33.09-.09.2-.14.33-.14h3.58c.13,0,.24.05.33.14.09.09.14.2.14.33v.78c0,.08.03.12.1.14.06.01.14-.03.21-.14.88-1.04,2.11-1.55,3.69-1.55,1.68,0,2.96.56,3.83,1.69Z"/>
    <path class="cls-2" d="m115.03,62.6c-1.23-1.14-1.85-2.68-1.85-4.63v-7.85c0-1.89.62-3.41,1.85-4.57,1.23-1.15,2.91-1.73,5.03-1.73s3.81.56,5.05,1.69c1.24,1.13,1.87,2.56,1.87,4.3v.54c0,.13-.05.24-.14.33-.09.09-.2.14-.33.14l-3.58.16c-.31,0-.47-.16-.47-.47v-.39c0-.65-.23-1.21-.68-1.69-.45-.48-1.03-.72-1.73-.72s-1.27.26-1.71.78c-.44.52-.66,1.18-.66,1.98v7.19c0,.8.22,1.46.66,1.98.44.52,1.01.78,1.71.78s1.28-.24,1.73-.72c.45-.48.68-1.06.68-1.73v-.39c0-.13.04-.24.14-.33.09-.09.2-.14.33-.14l3.58.04c.13,0,.24.05.33.14.09.09.14.2.14.33v.7c0,1.79-.62,3.23-1.87,4.33-1.24,1.1-2.93,1.65-5.05,1.65s-3.8-.57-5.03-1.71Z"/>
    <path class="cls-2" d="m140.98,45.52c.87,1.13,1.3,2.73,1.3,4.8v13.22c0,.13-.05.24-.14.33-.09.09-.2.14-.33.14h-3.58c-.13,0-.24-.04-.33-.14-.09-.09-.14-.2-.14-.33v-12.87c0-.93-.19-1.66-.58-2.18-.39-.52-.95-.78-1.67-.78s-1.34.27-1.75.82c-.41.54-.62,1.3-.62,2.25v12.75c0,.13-.05.24-.14.33-.09.09-.2.14-.33.14h-3.58c-.13,0-.24-.04-.33-.14-.09-.09-.14-.2-.14-.33v-26.28c0-.13.04-.24.14-.33s.2-.14.33-.14h3.58c.13,0,.24.05.33.14.09.09.14.2.14.33v8.12c0,.08.03.12.1.14.06.01.14-.03.21-.14.88-1.04,2.11-1.55,3.69-1.55,1.68,0,2.96.56,3.83,1.69Z"/>
  </g>
</svg>