<?xml version="1.0" encoding="UTF-8"?>
<svg id="Layer_1" data-name="Layer 1" xmlns="http://www.w3.org/2000/svg" viewBox="0 0 288 72">
  <defs>
    <style>
      .cls-1 {
        fill: #0093d4;
      }

      .cls-2 {
        fill: #ffcb05;
      }
    </style>
  </defs>
  <g>
    <path class="cls-1" d="m59.65,19.87c-1.9-4.11-8.02-5.22-16.92-3.13-2.61-8.48-6.84-13.31-11.74-13.31s-8.93,4.62-11.55,12.74c-9.1-2.4-15.39-1.44-17.4,2.71-1.87,3.9.77,9.59,7.27,15.79-6.31,5.93-8.91,11.43-7.14,15.27,1.27,2.76,4.43,4.17,9.05,4.17,2.32,0,5.03-.38,8.04-1.09,2.62,8.47,6.84,13.29,11.73,13.29s9.12-4.82,11.74-13.29c2.81.67,5.35,1.02,7.54,1.02,4.41,0,7.46-1.35,8.74-3.99,1.81-3.76-.47-9.02-6.42-14.95,6.34-5.96,8.85-11.32,7.05-15.21Zm-19.7,28.3c-1.36-.43-2.76-.94-4.17-1.51.19-.1.36-.18.55-.28,1.49-.79,2.95-1.62,4.38-2.48-.2,1.47-.45,2.9-.75,4.26Zm-17.8-27.09c1.47.5,2.98,1.08,4.52,1.73-.39.2-.78.39-1.17.6-1.41.75-2.82,1.54-4.2,2.37.22-1.61.51-3.18.86-4.7Zm8.96,23.54c-1.42-.68-2.86-1.41-4.29-2.19-2.09-1.16-4.11-2.4-6.04-3.69-.07-1.27-.12-2.56-.12-3.87s.05-2.71.13-4.15c2.13-1.37,4.31-2.68,6.53-3.85,1.32-.7,2.64-1.34,3.94-1.94,1.08.54,2.06,1.05,2.96,1.56,2.47,1.37,4.8,2.82,6.96,4.3.08,1.42.13,2.77.13,4.08s-.04,2.67-.12,4.12c-2.13,1.39-4.37,2.71-6.7,3.95-1.22.64-2.32,1.19-3.39,1.68Zm8.84-23.07c.3,1.36.55,2.78.75,4.23-1.46-.93-2.98-1.83-4.56-2.7-.07-.04-.14-.08-.22-.12,1.36-.52,2.71-1,4.02-1.41Zm-21.05,8.06h.01s0,0,0,0h-.01s0,0,0,0Zm-2.13,6.28c-.52-.4-1.02-.8-1.51-1.2.49-.39,1-.79,1.52-1.18,0,.45-.02.91-.02,1.35,0,.34.01.68.02,1.03Zm2.13,3.95h-.02s.02,0,.02,0Zm1.72,10.84h0s0,0,0,0h0Zm1.43-2.47c-.32-1.45-.58-2.96-.79-4.51,1.2.74,2.43,1.46,3.68,2.15.5.28,1.01.53,1.51.8-1.49.59-2.96,1.11-4.4,1.57Zm23.16-14.46c.52.41,1.02.83,1.51,1.25-.49.39-.99.79-1.51,1.18,0-.44.01-.88.01-1.31,0-.37-.01-.74-.02-1.11Zm10.89-12.25c.82,1.78-.88,5.79-6.38,10.91-1.48-1.28-3.08-2.54-4.77-3.76-.24-2.84-.65-5.57-1.23-8.13,7.38-1.71,11.57-.76,12.38.98ZM31,7.35c2.92,0,5.95,4.03,7.96,10.42-2.47.76-5.02,1.72-7.62,2.85-2.8-1.33-5.53-2.43-8.14-3.31,2-6.11,4.97-9.96,7.81-9.96ZM5.57,20.58c.86-1.77,5.22-2.63,12.84-.63-.64,2.73-1.1,5.59-1.35,8.57-1.7,1.17-3.31,2.37-4.79,3.58-5.81-5.46-7.58-9.67-6.7-11.51Zm.16,27.73c-.83-1.8.91-5.85,6.52-11.03,1.49,1.24,3.09,2.46,4.78,3.64.24,2.9.66,5.69,1.26,8.32-7.49,1.77-11.74.83-12.55-.94Zm25.27,14.08c-2.91,0-5.94-4.03-7.95-10.4,2.62-.82,5.31-1.84,8.06-3.06,2.68,1.21,5.31,2.23,7.85,3.03-2,6.39-5.04,10.43-7.96,10.43Zm24.5-14.05c-.83,1.71-4.77,2.56-11.77.9.56-2.51.97-5.21,1.23-8.05,1.66-1.14,3.24-2.32,4.7-3.52,5.12,5.07,6.66,8.97,5.84,10.67Z"/>
    <circle class="cls-1" cx="30.83" cy="34.87" r="3.91"/>
  </g>
  <g>
    <path class="cls-2" d="m77.12,52.94c-2-1.98-3-4.61-3-7.88v-19.19c0-3.27,1-5.9,3-7.88,2-1.98,4.64-2.97,7.91-2.97s5.92.99,7.94,2.97c2.02,1.98,3.03,4.61,3.03,7.88v19.19c0,3.28-1.01,5.9-3.03,7.88-2.02,1.98-4.67,2.97-7.94,2.97s-5.91-.99-7.91-2.97Zm11.05-4.08c.8-.89,1.2-2.06,1.2-3.51v-19.77c0-1.45-.4-2.62-1.2-3.51s-1.85-1.34-3.14-1.34-2.33.45-3.11,1.34c-.78.89-1.17,2.06-1.17,3.51v19.77c0,1.45.39,2.62,1.17,3.51.78.89,1.82,1.34,3.11,1.34s2.34-.45,3.14-1.34Z"/>
    <path class="cls-2" d="m117.96,28.29c1.41,1.66,2.11,3.91,2.11,6.77v11.54c0,2.93-.71,5.22-2.11,6.85-1.41,1.64-3.39,2.46-5.94,2.46-.88,0-1.77-.16-2.68-.49-.91-.32-1.73-.85-2.46-1.57-.08-.08-.15-.1-.23-.06-.08.04-.11.11-.11.23v11.54c0,.19-.07.35-.2.49-.13.13-.3.2-.49.2h-5.26c-.19,0-.35-.07-.49-.2-.13-.13-.2-.3-.2-.49V26.95c0-.19.07-.35.2-.48.13-.13.3-.2.49-.2h5.26c.19,0,.35.07.49.2s.2.29.2.48v.69c0,.11.05.18.14.2.09.02.2-.05.31-.2,1.33-1.22,3.01-1.83,5.03-1.83,2.55,0,4.53.83,5.94,2.49Zm-5.43,4.31c-.65-.76-1.5-1.14-2.57-1.14s-1.86.38-2.49,1.14-.94,1.75-.94,2.97v10.57c0,1.22.31,2.2.94,2.94.63.74,1.46,1.11,2.49,1.11s1.92-.37,2.57-1.11c.65-.74.97-1.72.97-2.94v-10.57c0-1.22-.32-2.21-.97-2.97Z"/>
    <path class="cls-2" d="m143.28,43.09c-.13.13-.3.2-.49.2h-12.62c-.19,0-.28.1-.28.29v2.57c0,1.18.32,2.15.97,2.91s1.49,1.14,2.51,1.14c.88,0,1.63-.28,2.26-.83.63-.55,1.04-1.27,1.23-2.14.11-.38.36-.57.74-.57l5.08.23c.19,0,.35.07.49.2.13.13.18.31.14.54-.27,2.67-1.24,4.71-2.91,6.14-1.68,1.43-4.02,2.14-7.03,2.14s-5.59-.83-7.4-2.49c-1.81-1.66-2.71-3.91-2.71-6.77v-11.6c0-2.78.9-5.02,2.71-6.71,1.81-1.69,4.27-2.54,7.4-2.54s5.59.85,7.4,2.54c1.81,1.69,2.71,3.93,2.71,6.71v7.54c0,.19-.07.35-.2.48Zm-12.42-10.43c-.65.76-.97,1.73-.97,2.91v2.57c0,.19.09.29.28.29h6.46c.19,0,.29-.09.29-.29v-2.57c0-1.22-.32-2.2-.97-2.94-.65-.74-1.5-1.11-2.57-1.11s-1.87.38-2.51,1.14Z"/>
    <path class="cls-2" d="m164.9,28.29c1.28,1.66,1.91,4.01,1.91,7.06v19.42c0,.19-.07.35-.2.48s-.3.2-.49.2h-5.26c-.19,0-.35-.07-.49-.2-.13-.13-.2-.29-.2-.48v-18.91c0-1.37-.29-2.44-.86-3.2-.57-.76-1.39-1.14-2.46-1.14s-1.96.4-2.57,1.2c-.61.8-.91,1.91-.91,3.31v18.74c0,.19-.07.35-.2.48s-.3.2-.49.2h-5.26c-.19,0-.35-.07-.49-.2-.13-.13-.2-.29-.2-.48v-27.82c0-.19.07-.35.2-.48.13-.13.29-.2.49-.2h5.26c.19,0,.35.07.49.2s.2.29.2.48v1.14c0,.11.05.18.14.2.09.02.2-.05.31-.2,1.29-1.52,3.1-2.29,5.43-2.29,2.47,0,4.35.83,5.63,2.49Z"/>
    <path class="cls-2" d="m189.58,52.6c-2.04,1.91-4.69,2.86-7.97,2.86h-10.05c-.19,0-.35-.07-.49-.2-.13-.13-.2-.29-.2-.48V16.15c0-.19.07-.35.2-.49.13-.13.29-.2.49-.2h9.03c3.62,0,6.46.91,8.51,2.74,2.06,1.83,3.08,4.49,3.08,8,0,3.92-1.39,6.72-4.17,8.4-.19.11-.23.23-.11.34,1.48.95,2.65,2.23,3.48,3.83.84,1.6,1.26,3.5,1.26,5.71,0,3.5-1.02,6.21-3.06,8.11Zm-12.08-31.13v10.63c0,.19.1.28.29.28h2.91c1.56,0,2.78-.47,3.66-1.43s1.31-2.3,1.31-4.06-.44-3.24-1.31-4.23c-.88-.99-2.09-1.48-3.66-1.48h-2.91c-.19,0-.29.1-.29.29Zm7.2,26.62c.88-1.07,1.31-2.57,1.31-4.51s-.44-3.53-1.31-4.66-2.08-1.69-3.6-1.69h-3.31c-.19,0-.29.1-.29.29v11.88c0,.19.1.29.29.29h3.31c1.52,0,2.72-.53,3.6-1.6Z"/>
    <path class="cls-2" d="m215.6,43.09c-.13.13-.3.2-.49.2h-12.62c-.19,0-.28.1-.28.29v2.57c0,1.18.32,2.15.97,2.91s1.49,1.14,2.51,1.14c.88,0,1.63-.28,2.26-.83.63-.55,1.04-1.27,1.23-2.14.11-.38.36-.57.74-.57l5.08.23c.19,0,.35.07.49.2.13.13.18.31.14.54-.27,2.67-1.24,4.71-2.91,6.14-1.68,1.43-4.02,2.14-7.03,2.14s-5.59-.83-7.4-2.49c-1.81-1.66-2.71-3.91-2.71-6.77v-11.6c0-2.78.9-5.02,2.71-6.71,1.81-1.69,4.27-2.54,7.4-2.54s5.59.85,7.4,2.54c1.81,1.69,2.71,3.93,2.71,6.71v7.54c0,.19-.07.35-.2.48Zm-12.42-10.43c-.65.76-.97,1.73-.97,2.91v2.57c0,.19.09.29.28.29h6.46c.19,0,.29-.09.29-.29v-2.57c0-1.22-.32-2.2-.97-2.94-.65-.74-1.5-1.11-2.57-1.11s-1.87.38-2.51,1.14Z"/>
    <path class="cls-2" d="m237.23,28.29c1.28,1.66,1.91,4.01,1.91,7.06v19.42c0,.19-.07.35-.2.48s-.3.2-.49.2h-5.26c-.19,0-.35-.07-.49-.2-.13-.13-.2-.29-.2-.48v-18.91c0-1.37-.29-2.44-.86-3.2-.57-.76-1.39-1.14-2.46-1.14s-1.96.4-2.57,1.2c-.61.8-.91,1.91-.91,3.31v18.74c0,.19-.07.35-.2.48s-.3.2-.49.2h-5.26c-.19,0-.35-.07-.49-.2-.13-.13-.2-.29-.2-.48v-27.82c0-.19.07-.35.2-.48.13-.13.29-.2.49-.2h5.26c.19,0,.35.07.49.2s.2.29.2.48v1.14c0,.11.05.18.14.2.09.02.2-.05.31-.2,1.29-1.52,3.1-2.29,5.43-2.29,2.47,0,4.35.83,5.63,2.49Z"/>
    <path class="cls-2" d="m245.22,53.4c-1.81-1.68-2.71-3.94-2.71-6.8v-11.54c0-2.78.9-5.02,2.71-6.71,1.81-1.69,4.27-2.54,7.4-2.54s5.6.83,7.43,2.49c1.83,1.66,2.74,3.76,2.74,6.31v.8c0,.19-.07.35-.2.49s-.3.2-.49.2l-5.26.23c-.46,0-.69-.23-.69-.69v-.57c0-.95-.33-1.78-1-2.49-.67-.7-1.51-1.06-2.54-1.06s-1.87.38-2.51,1.14c-.65.76-.97,1.73-.97,2.91v10.57c0,1.18.32,2.15.97,2.91s1.49,1.14,2.51,1.14,1.88-.35,2.54-1.06c.67-.7,1-1.55,1-2.54v-.57c0-.19.07-.35.2-.49.13-.13.29-.2.49-.2l5.26.06c.19,0,.35.07.49.2.13.13.2.3.2.48v1.03c0,2.63-.91,4.75-2.74,6.37-1.83,1.62-4.3,2.43-7.43,2.43s-5.59-.84-7.4-2.51Z"/>
    <path class="cls-2" d="m283.99,28.29c1.28,1.66,1.91,4.01,1.91,7.06v19.42c0,.19-.07.35-.2.48s-.3.2-.49.2h-5.26c-.19,0-.35-.07-.49-.2-.13-.13-.2-.29-.2-.48v-18.91c0-1.37-.29-2.44-.86-3.2-.57-.76-1.39-1.14-2.46-1.14s-1.96.4-2.57,1.2c-.61.8-.91,1.91-.91,3.31v18.74c0,.19-.07.35-.2.48s-.3.2-.49.2h-5.26c-.19,0-.35-.07-.49-.2-.13-.13-.2-.29-.2-.48V16.15c0-.19.07-.35.2-.49s.29-.2.49-.2h5.26c.19,0,.35.07.49.2.13.13.2.3.2.49v11.94c0,.11.05.18.14.2.09.02.2-.05.31-.2,1.29-1.52,3.1-2.29,5.43-2.29,2.47,0,4.35.83,5.63,2.49Z"/>
  </g>
</svg>